<?xml version="1.0" standalone="no"?>
<!DOCTYPE svg PUBLIC "-//W3C//DTD SVG 20010904//EN"
 "http://www.w3.org/TR/2001/REC-SVG-20010904/DTD/svg10.dtd">
<svg version="1.0" xmlns="http://www.w3.org/2000/svg"
 width="296.000000pt" height="297.000000pt" viewBox="0 0 296.000000 297.000000"
 preserveAspectRatio="xMidYMid meet">

<g transform="translate(0.000000,297.000000) scale(0.100000,-0.100000)"
fill="#ffffff" stroke="none">
<path d="M1473 2938 c-5 -7 -38 -73 -73 -145 -61 -129 -64 -133 -99 -139 -230
-38 -453 -147 -623 -304 -177 -162 -320 -425 -359 -658 l-11 -67 -147 -71
-146 -71 145 -73 145 -72 23 -107 c50 -225 146 -403 312 -572 113 -115 224
-195 355 -254 89 -41 221 -81 299 -90 31 -4 56 -11 56 -15 0 -4 31 -71 68
-148 l68 -142 74 149 74 149 65 13 c221 41 451 165 616 333 169 173 290 400
327 617 l13 73 148 71 148 70 -143 70 c-79 38 -144 70 -146 71 -2 1 -12 43
-22 93 -26 126 -55 211 -108 315 -163 318 -466 543 -824 611 -45 8 -84 17 -86
20 -2 2 -33 66 -69 142 -35 75 -66 139 -67 141 -2 1 -8 -3 -13 -10z m71 -423
c16 -46 34 -86 40 -89 6 -2 -10 -5 -35 -5 -43 -1 -46 0 -42 23 5 25 -8 34 -47
32 -20 -1 -25 -6 -25 -29 1 -24 -3 -27 -32 -27 -18 0 -33 5 -33 10 0 6 4 10
10 10 5 0 28 36 50 80 32 64 45 80 63 80 19 0 26 -12 51 -85z m-320 50 c-8
-19 35 -145 49 -145 7 0 7 -3 2 -9 -14 -13 -79 -25 -72 -14 3 5 -2 36 -12 69
l-19 59 -7 -68 c-10 -89 -24 -94 -80 -31 l-44 49 16 -50 c8 -27 22 -55 31 -62
13 -11 11 -14 -12 -23 -36 -13 -39 -13 -33 5 8 20 -29 127 -49 142 -14 10 -9
14 26 24 42 13 43 13 76 -24 19 -20 36 -37 38 -37 2 0 7 24 10 54 7 49 10 54
39 64 45 14 47 14 41 -3z m645 -44 c31 -17 29 -69 -3 -81 -22 -8 -23 -11 -12
-42 6 -18 15 -39 19 -45 5 -9 3 -13 -8 -13 -31 0 -54 21 -61 55 -9 51 -29 63
-42 26 -6 -16 -8 -32 -5 -35 10 -9 -11 -7 -46 5 -26 9 -29 13 -18 23 17 13 47
99 47 132 l0 23 54 -19 c30 -10 63 -23 75 -29z m226 -116 c21 -17 25 -24 14
-25 -16 0 -34 -26 -31 -42 1 -5 -2 -8 -7 -8 -14 0 -53 -68 -46 -80 10 -16 -4
-12 -43 15 -21 14 -30 25 -21 25 19 0 93 115 84 130 -12 19 20 10 50 -15z
m-1227 -45 c2 -18 12 -29 32 -37 49 -18 40 -52 -27 -112 -61 -53 -73 -60 -73
-37 0 19 -77 114 -96 118 -10 2 8 21 47 51 72 55 112 61 117 17z m827 -9 c311
-81 560 -330 646 -646 32 -118 33 -327 1 -445 -44 -162 -115 -286 -234 -408
-110 -113 -217 -179 -367 -226 -303 -96 -628 -26 -864 184 -126 113 -204 229
-256 385 -173 521 148 1068 687 1170 103 20 281 13 387 -14z m585 -123 c0 -13
-6 -47 -14 -76 -7 -29 -10 -52 -6 -52 4 0 24 18 43 40 33 35 38 38 52 24 17
-17 21 -39 5 -29 -6 4 -38 -17 -71 -46 -53 -46 -62 -50 -75 -37 -13 13 -13 22
0 82 22 93 21 95 -24 51 -21 -21 -37 -42 -34 -47 9 -14 -9 -9 -28 9 -22 20
-23 33 -2 33 21 0 114 81 114 99 0 11 6 8 20 -7 11 -12 20 -32 20 -44z m-1623
-118 c31 -22 60 -37 64 -34 15 9 10 -7 -12 -38 -17 -23 -24 -27 -30 -16 -12
22 -117 90 -129 83 -17 -11 -11 5 18 42 20 28 28 32 30 20 2 -9 28 -35 59 -57z
m1832 -182 c25 -56 29 -73 19 -79 -7 -5 -16 -9 -19 -9 -11 0 -19 29 -10 35 11
6 3 43 -10 51 -15 9 -49 -6 -49 -21 0 -8 8 -19 18 -24 16 -10 16 -12 -2 -26
-28 -22 -39 -18 -32 9 8 31 -5 40 -38 25 -38 -18 -32 -50 12 -64 27 -8 24 -29
-4 -33 -16 -2 -26 11 -51 68 -25 56 -28 70 -16 70 22 0 133 51 133 61 0 27 21
0 49 -63z m-1989 36 c0 -8 -7 -14 -15 -14 -17 0 -39 -36 -30 -50 10 -16 26
-12 62 16 21 16 43 24 61 22 23 -2 28 -8 30 -37 6 -62 -31 -121 -65 -103 -16
9 -15 12 10 23 27 12 43 41 32 59 -10 17 -32 11 -63 -15 -72 -60 -118 -5 -72
85 14 27 25 38 35 34 8 -4 15 -12 15 -20z m24 -626 c20 -28 21 -64 2 -71 -20
-8 -28 4 -15 19 6 8 8 21 5 30 -5 13 -9 14 -21 4 -8 -7 -15 -18 -15 -25 0 -20
-37 -47 -62 -43 -29 4 -51 74 -28 88 18 11 35 1 21 -13 -16 -16 -13 -47 4 -47
8 0 24 18 35 40 23 46 50 52 74 18z m1972 -18 c-3 -20 -1 -30 10 -34 17 -6 29
17 20 39 -3 8 -1 15 4 15 16 0 23 -46 10 -69 -16 -31 -74 -29 -96 4 -19 29
-11 63 19 74 30 12 40 3 33 -29z m-1923 -119 c4 -16 -2 -21 -24 -26 -27 -6
-28 -8 -15 -27 20 -28 11 -45 -32 -59 -21 -7 -40 -17 -44 -23 -4 -6 -11 -1
-16 14 -9 23 -6 26 34 38 24 7 44 17 44 22 0 18 -20 20 -56 5 -42 -17 -39 -18
-48 12 -6 17 -3 22 11 21 27 -2 123 32 123 43 0 16 17 1 23 -20z m1867 -5 c0
-8 -8 -17 -17 -21 -17 -6 -17 -7 1 -21 30 -21 66 -18 66 6 0 11 5 20 10 20 16
0 12 -47 -6 -64 -45 -46 -113 14 -88 78 8 20 34 21 34 2z m-100 -132 c0 -8 -7
-14 -15 -14 -15 0 -21 21 -9 33 10 9 24 -2 24 -19z m118 -40 c2 -1 -2 -12 -8
-24 -7 -13 -15 -18 -19 -13 -10 16 -71 44 -81 38 -13 -8 -13 1 0 25 10 19 12
19 58 -3 26 -12 48 -22 50 -23z m-1825 21 c8 -18 -11 -31 -25 -17 -11 11 -3
32 12 32 4 0 10 -7 13 -15z m-43 -15 c9 -17 5 -22 -32 -41 -24 -12 -46 -26
-49 -31 -3 -5 -10 2 -16 15 -10 21 -7 24 33 41 24 10 44 22 44 27 0 15 9 10
20 -11z m1740 -60 c0 -6 12 -29 27 -51 33 -50 23 -61 -42 -47 -62 14 -59 12
-45 38 7 13 15 18 19 13 3 -6 19 -13 35 -17 27 -7 28 -6 16 11 -8 10 -20 23
-28 30 -8 6 -11 16 -7 22 8 14 25 14 25 1z m-1680 -45 c0 -7 7 -15 15 -19 20
-7 19 -45 -2 -68 -21 -24 -69 -23 -85 1 -13 22 -38 17 -38 -8 -1 -12 -5 -11
-21 8 l-20 24 29 14 c16 8 44 28 63 46 33 32 59 33 59 2z m1600 -85 c0 -6 -7
-13 -15 -16 -23 -9 -18 -27 15 -49 34 -23 36 -28 15 -45 -12 -10 -19 -7 -41
19 -14 17 -32 31 -40 31 -21 0 -17 10 14 41 27 29 52 37 52 19z m-1379 -88
c22 -19 22 -52 -1 -52 -6 0 -8 5 -5 10 9 14 -14 42 -27 34 -6 -4 -7 -25 -4
-48 9 -63 -17 -86 -66 -58 -29 17 -42 38 -32 53 10 16 23 10 26 -13 2 -13 11
-24 22 -26 17 -4 18 1 12 43 -11 71 24 97 75 57z m1275 -27 c19 -15 18 -16 -8
-39 -15 -13 -24 -27 -21 -30 12 -12 36 -6 49 12 10 13 13 14 14 3 0 -22 -30
-51 -53 -51 -53 0 -77 75 -35 104 28 20 30 20 54 1z m-154 -60 c-1 -5 -12 -10
-25 -10 -39 0 -26 -30 15 -33 45 -4 73 -35 57 -63 -11 -22 -63 -51 -73 -42
-14 15 -4 29 21 28 14 0 28 6 30 12 5 14 -4 18 -59 28 -48 8 -59 37 -27 71 22
24 67 30 61 9z m-1058 -11 c14 -5 13 -11 -4 -45 -22 -43 -25 -59 -10 -59 13 0
51 61 44 72 -7 11 7 10 25 -1 13 -8 11 -17 -10 -60 -25 -53 -36 -61 -45 -36
-4 8 -14 15 -24 15 -36 0 -42 25 -18 74 12 25 23 46 24 46 1 0 9 -3 18 -6z
m856 -91 c0 -8 -4 -22 -9 -32 -7 -13 -5 -20 11 -30 19 -12 20 -11 15 8 -5 19
1 25 21 19 4 -2 7 -14 7 -28 0 -19 4 -24 19 -22 17 3 18 2 7 -12 -8 -9 -22
-16 -33 -16 -10 0 -30 -7 -43 -16 -16 -10 -34 -14 -51 -10 -24 6 -26 10 -21
44 4 20 2 44 -3 51 -11 20 5 50 33 60 27 10 47 4 47 -16z m-687 5 c12 -6 29
-14 37 -18 18 -9 18 -64 -1 -86 -8 -10 -25 -14 -48 -12 -29 2 -36 0 -35 -14 2
-19 -13 -23 -34 -10 -10 7 -10 14 2 37 8 15 20 48 28 71 13 48 17 50 51 32z
m332 -100 c0 -78 0 -78 -27 -78 -26 0 -26 1 -17 30 6 16 9 53 7 80 -3 46 -1
50 17 48 18 -3 20 -11 20 -80z m-140 42 c30 0 41 -33 26 -73 -10 -27 -50 -45
-70 -32 -7 4 -11 -4 -11 -20 0 -21 -4 -26 -16 -21 -9 3 -19 6 -23 6 -5 0 -2
23 5 52 8 29 14 65 14 80 0 25 2 27 26 18 14 -6 36 -10 49 -10z m279 -76 c-14
-38 -31 -75 -39 -83 -15 -15 -50 -7 -40 9 4 6 11 7 17 4 23 -15 24 22 2 73
-13 29 -24 56 -24 58 0 3 12 5 26 5 14 0 22 -4 19 -10 -3 -5 0 -22 8 -36 l14
-27 7 27 c4 15 4 31 1 36 -4 7 24 20 33 15 1 -1 -9 -33 -24 -71z"/>
<path d="M1462 2535 c-17 -38 -15 -45 14 -45 22 0 24 3 18 23 -13 45 -20 49
-32 22z"/>
<path d="M1790 2505 c-15 -39 -13 -45 15 -45 29 0 43 25 28 48 -16 26 -32 25
-43 -3z"/>
<path d="M772 2337 c-9 -10 -7 -19 4 -35 12 -18 19 -20 35 -12 11 6 19 21 19
35 0 20 -5 25 -24 25 -13 0 -28 -6 -34 -13z"/>
<path d="M820 2274 c-11 -13 -10 -19 8 -37 l22 -21 20 20 c25 25 17 54 -15 54
-12 0 -28 -7 -35 -16z"/>
<path d="M1478 2234 c-5 -4 -8 -18 -8 -30 0 -18 -11 -28 -47 -44 -43 -19 -47
-19 -65 -4 -24 23 -36 10 -14 -15 16 -18 16 -22 2 -50 -9 -16 -16 -37 -16 -46
0 -10 -10 -15 -31 -15 -20 0 -29 -4 -26 -12 2 -7 14 -12 26 -11 16 2 24 -5 31
-25 6 -15 15 -35 21 -45 8 -14 7 -23 -5 -36 -18 -20 -21 -41 -7 -41 6 0 16 9
24 20 14 20 14 20 60 -2 35 -17 47 -29 47 -45 0 -12 5 -25 10 -28 10 -6 14 6
11 38 -1 9 4 17 11 17 8 0 30 8 50 19 36 18 38 18 54 -1 13 -13 20 -15 28 -7
8 8 5 15 -10 25 -21 15 -21 15 -3 51 11 21 19 43 19 51 0 7 8 12 18 11 31 -3
43 1 37 11 -3 6 -15 10 -25 10 -13 0 -27 16 -43 49 l-25 48 21 18 c16 14 18
20 8 23 -8 3 -20 -3 -27 -12 -10 -15 -16 -16 -35 -5 -13 6 -34 15 -48 19 -20
5 -27 15 -31 39 -3 18 -8 29 -12 25z m-8 -141 l0 -47 -31 32 c-18 18 -30 34
-28 36 10 8 45 25 52 26 4 0 7 -21 7 -47z m54 37 c38 -14 35 -29 -17 -69 -16
-12 -17 -10 -17 33 0 25 2 46 4 46 3 0 16 -4 30 -10z m-99 -70 l29 -30 -47 0
-46 0 10 30 c6 17 14 30 18 30 4 0 20 -13 36 -30z m169 8 c9 -37 8 -38 -36
-38 l-42 0 29 30 c34 36 41 37 49 8z m-174 -93 c-31 -30 -42 -28 -54 11 -6 18
-2 20 39 20 l45 -1 -30 -30z m180 18 c0 -8 -5 -23 -10 -34 -11 -19 -12 -18
-40 10 -17 16 -30 32 -30 35 0 2 18 4 40 4 28 0 40 -5 40 -15z m-134 -91 c-3
-3 -18 0 -32 7 l-27 12 29 30 29 31 3 -37 c2 -20 1 -40 -2 -43z m59 58 c10
-11 22 -17 26 -14 5 3 9 -2 9 -11 0 -14 -36 -35 -61 -35 -5 0 -9 18 -9 40 0
45 8 49 35 20z"/>
<path d="M916 2049 c43 -58 88 -109 92 -105 2 3 108 -96 235 -219 127 -124
232 -223 235 -221 2 3 5 23 6 45 1 23 4 42 7 44 36 30 448 353 459 360 8 6
-91 -96 -220 -226 l-235 -237 46 0 45 0 137 -171 c75 -95 137 -169 137 -165 0
4 -55 75 -121 159 -67 83 -125 157 -130 163 -5 6 52 85 148 205 242 301 308
385 287 368 -10 -9 -134 -107 -274 -219 -140 -112 -262 -209 -270 -216 -14
-12 -56 19 -305 218 -160 128 -285 225 -279 217z"/>
<path d="M1011 1934 c2 -6 18 -29 36 -50 18 -21 96 -119 174 -218 131 -163
141 -180 130 -199 -8 -11 -106 -136 -219 -276 -240 -300 -233 -291 -207 -270
131 107 525 419 542 429 20 13 39 0 295 -205 150 -120 280 -223 288 -229 13
-10 -138 183 -163 209 -19 19 6 -19 42 -65 19 -25 -70 59 -199 185 l-235 230
-5 -47 c-6 -53 23 -26 -284 -268 -87 -69 -165 -129 -174 -134 -10 -5 86 94
212 220 l230 229 -46 5 -46 5 -177 220 c-181 226 -200 248 -194 229z"/>
<path d="M984 1625 c-7 -19 -14 -40 -14 -48 0 -7 -15 -27 -33 -45 l-33 -32
-29 30 c-28 29 -28 30 -10 50 10 11 24 20 32 20 17 0 13 32 -4 37 -7 3 -17 -7
-22 -21 -6 -13 -19 -30 -31 -36 -18 -9 -20 -8 -20 14 0 38 -34 52 -60 26 -11
-11 -20 -24 -20 -29 0 -13 23 -29 48 -33 l24 -3 -22 -27 c-12 -16 -28 -28 -36
-28 -18 0 -18 -14 0 -29 12 -10 18 -6 31 23 21 43 33 45 68 8 l27 -28 -43 -41
c-23 -23 -53 -43 -66 -45 -36 -5 -53 -37 -38 -68 22 -45 87 -34 87 14 0 13 19
41 45 66 l45 44 36 -34 c48 -47 60 -70 43 -81 -19 -12 -62 -11 -54 1 8 13 -7
13 -40 0 l-27 -10 23 -19 c13 -11 28 -16 34 -13 5 3 23 5 39 3 16 -1 46 5 66
14 42 19 66 70 58 124 -3 21 0 31 10 33 10 2 6 10 -12 27 l-25 24 -11 -28 c-8
-21 -8 -30 0 -35 14 -8 9 -62 -5 -66 -5 -2 -32 17 -59 41 l-50 45 34 35 c18
18 49 37 69 42 32 8 36 12 39 43 2 29 0 32 -8 18 -14 -22 -33 -23 -51 -2 -10
12 -10 20 -1 35 10 16 9 19 -3 19 -9 0 -23 -16 -31 -35z m-184 -24 c0 -11 -5
-23 -11 -27 -15 -9 -33 12 -26 30 9 23 37 20 37 -3z m152 -94 l-32 -32 57 -57
c31 -32 55 -60 52 -62 -3 -3 -45 35 -95 85 -49 50 -80 86 -68 81 11 -6 26 -18
33 -26 11 -13 17 -10 43 20 17 19 33 32 36 29 3 -3 -8 -20 -26 -38z m-82 -82
c-19 -19 -38 -35 -44 -35 -5 0 5 16 24 35 19 19 38 35 44 35 5 0 -5 -16 -24
-35z m-69 -76 c9 -17 8 -25 -4 -37 -27 -26 -67 6 -53 43 8 22 44 18 57 -6z"/>
<path d="M1952 1640 c-39 -24 -72 -76 -71 -110 1 -22 2 -21 8 6 14 56 53 97
109 114 21 6 22 8 7 9 -11 1 -35 -8 -53 -19z"/>
<path d="M2085 1649 c17 -4 46 -24 64 -43 27 -28 35 -45 39 -85 6 -63 -10
-103 -57 -142 -20 -17 -27 -27 -16 -21 75 38 107 139 69 219 -19 38 -78 83
-109 82 -14 -1 -11 -4 10 -10z"/>
<path d="M1978 1604 c-64 -34 -77 -122 -27 -179 18 -20 34 -34 36 -32 2 3 -10
18 -27 35 -44 44 -43 101 4 148 46 46 104 48 146 5 50 -50 52 -110 4 -158 -14
-14 -23 -27 -21 -29 11 -11 59 58 64 93 13 98 -90 166 -179 117z"/>
<path d="M1999 1575 c-52 -28 -59 -99 -13 -135 17 -14 17 -14 1 10 -21 31 -22
69 -1 98 20 29 76 30 104 2 24 -24 26 -72 5 -90 -8 -7 -15 -17 -15 -23 0 -5 9
-2 20 8 20 18 27 66 14 100 -7 17 -55 45 -76 45 -7 -1 -25 -7 -39 -15z"/>
<path d="M2025 1511 c-3 -6 -4 -15 -1 -19 3 -5 -11 -61 -30 -126 -20 -65 -33
-121 -29 -124 3 -3 21 2 40 13 34 18 36 18 70 0 19 -11 37 -17 39 -14 3 3 -10
57 -28 121 -19 63 -34 123 -33 133 2 20 -18 31 -28 16z m25 -67 c0 -8 -4 -14
-10 -14 -5 0 -10 9 -10 21 0 11 5 17 10 14 6 -3 10 -13 10 -21z m5 -53 c7 -12
-12 -24 -25 -16 -11 7 -4 25 10 25 5 0 11 -4 15 -9z m-30 -42 c-10 -15 -25
-10 -19 6 4 8 10 12 15 9 5 -3 7 -10 4 -15z m50 -7 c-8 -8 -25 10 -19 20 4 6
9 5 15 -3 4 -7 6 -15 4 -17z m-6 -16 c10 -12 8 -17 -8 -26 -29 -15 -68 5 -50
26 6 8 19 14 29 14 10 0 23 -6 29 -14z m-49 -46 c0 -9 -31 -23 -37 -17 -2 2
-1 11 3 20 5 15 34 13 34 -3z m74 4 c8 -20 8 -24 -1 -24 -17 0 -35 19 -29 29
10 16 23 14 30 -5z"/>
<path d="M1880 1478 c-1 -38 54 -118 82 -118 4 0 -5 12 -22 28 -17 15 -37 45
-45 67 -8 22 -14 32 -15 23z"/>
<path d="M1360 1121 c-37 -5 -45 -10 -47 -28 -2 -20 2 -22 46 -21 46 0 49 2
53 29 3 16 2 28 -1 27 -3 0 -26 -4 -51 -7z"/>
<path d="M1420 1050 c0 -16 -3 -30 -7 -31 -27 -2 -47 -9 -69 -23 -20 -14 -24
-24 -24 -66 0 -31 -4 -50 -12 -50 -6 0 -9 -2 -6 -5 3 -3 52 12 109 34 116 44
206 64 261 59 l36 -3 -15 -45 c-8 -25 -24 -58 -35 -73 -15 -21 -18 -31 -9 -40
17 -17 14 -40 -5 -33 -9 3 -75 8 -148 11 -190 7 -234 13 -241 36 -8 23 1 39
22 39 9 0 14 3 10 6 -13 13 -47 -8 -47 -29 0 -29 11 -44 35 -50 19 -5 19 -5
-2 -12 -13 -4 -23 -10 -23 -14 0 -3 110 -6 245 -7 135 0 245 2 245 6 0 3 -15
12 -33 21 -37 19 -37 23 -3 106 15 34 29 76 33 93 l6 32 -63 -7 c-35 -4 -76
-11 -92 -15 -23 -7 -30 -5 -39 12 -9 17 -18 19 -65 16 l-54 -4 1 30 c1 30 1
30 9 6 l8 -25 1 28 c1 18 -4 27 -14 27 -10 0 -15 -10 -15 -30z m120 -57 c0 -5
-29 -6 -65 -5 -55 3 -65 1 -65 -13 0 -9 7 -16 18 -14 52 5 53 -3 4 -26 -65
-30 -62 -30 -62 -5 0 11 -4 20 -10 20 -5 0 -10 -14 -10 -31 0 -17 -4 -28 -10
-24 -5 3 -10 21 -10 40 0 51 27 65 127 65 46 0 83 -3 83 -7z m-187 -220 c-7
-2 -19 -2 -25 0 -7 3 -2 5 12 5 14 0 19 -2 13 -5z"/>
<path d="M1585 898 c6 -41 6 -42 -10 -23 l-17 20 4 -20 c4 -24 47 -33 59 -13
15 23 10 33 -6 12 -15 -18 -15 -17 -13 20 2 25 -2 41 -10 43 -9 4 -11 -6 -7
-39z"/>
<path d="M1421 864 c0 -11 3 -14 6 -6 3 7 2 16 -1 19 -3 4 -6 -2 -5 -13z"/>
<path d="M1392 727 c-12 -7 -20 -16 -16 -20 4 -3 15 -2 25 4 13 6 25 6 39 -1
14 -8 26 -8 40 0 14 8 26 8 40 0 13 -7 26 -8 37 -1 10 5 26 5 40 0 28 -11 30
2 3 19 -15 9 -26 10 -40 2 -14 -8 -26 -7 -41 1 -16 8 -27 8 -45 -2 -19 -10
-27 -10 -36 -1 -15 15 -17 15 -46 -1z"/>
<path d="M2452 1308 c6 -18 28 -21 28 -4 0 9 -7 16 -16 16 -9 0 -14 -5 -12
-12z"/>
<path d="M599 881 c-19 -15 -21 -22 -12 -32 9 -9 17 -8 37 5 28 18 35 46 12
46 -8 0 -24 -9 -37 -19z"/>
<path d="M2092 698 c5 -15 28 -18 29 -3 0 6 -7 12 -17 13 -10 3 -15 -1 -12
-10z"/>
<path d="M1740 550 c0 -13 5 -20 13 -17 6 2 12 10 12 17 0 7 -6 15 -12 18 -8
2 -13 -5 -13 -18z"/>
<path d="M1740 470 c0 -15 7 -20 26 -20 27 0 25 14 -7 30 -16 9 -19 7 -19 -10z"/>
<path d="M1080 510 c-7 -17 -10 -34 -6 -37 13 -13 41 14 44 41 5 37 -22 34
-38 -4z"/>
<path d="M1256 484 c-11 -29 -7 -64 9 -64 16 0 30 42 21 65 -7 20 -22 19 -30
-1z"/>
<path d="M930 2607 c-104 -52 -170 -93 -241 -150 l-37 -29 -117 37 c-64 20
-118 35 -120 33 -1 -2 17 -53 42 -114 l45 -110 -56 -87 c-52 -79 -126 -225
-126 -248 0 -29 24 1 59 76 22 47 65 124 96 171 l56 87 -39 91 c-22 50 -38 93
-37 94 2 2 48 -11 103 -29 l99 -32 49 41 c68 57 206 142 286 176 38 15 65 32
62 37 -8 14 -12 12 -124 -44z"/>
<path d="M1916 2652 c-3 -5 29 -24 70 -42 67 -29 233 -133 305 -191 l27 -21
93 31 c52 17 97 31 101 31 4 0 -11 -43 -33 -95 l-39 -94 46 -68 c26 -37 69
-114 97 -170 45 -93 67 -123 67 -92 0 23 -88 196 -134 262 l-47 69 44 111 c24
62 43 113 42 115 -2 2 -55 -13 -119 -33 l-117 -37 -52 40 c-81 62 -163 112
-254 154 -92 42 -90 41 -97 30z"/>
<path d="M320 1025 c0 -26 76 -178 125 -250 26 -38 48 -77 47 -85 0 -8 -19
-60 -41 -114 -23 -55 -39 -101 -37 -103 2 -2 56 12 119 32 l114 36 74 -56 c41
-30 121 -80 179 -109 119 -61 154 -74 148 -56 -2 6 -33 24 -69 40 -79 33 -180
95 -267 162 l-63 49 -95 -31 c-52 -18 -97 -30 -100 -28 -2 3 13 45 35 95 l38
90 -56 85 c-32 47 -75 124 -97 172 -37 82 -54 104 -54 71z"/>
<path d="M2595 952 c-22 -48 -63 -123 -92 -166 -29 -43 -53 -84 -53 -91 0 -6
16 -49 36 -94 19 -46 33 -85 30 -88 -2 -3 -48 9 -100 27 l-96 32 -63 -50 c-81
-65 -186 -129 -267 -163 -59 -25 -88 -49 -60 -49 26 0 250 123 318 175 l74 55
115 -35 c63 -20 117 -34 120 -32 2 3 -16 54 -40 115 l-44 110 44 63 c49 71
133 235 133 262 0 35 -16 14 -55 -71z"/>
</g>
</svg>
